grf.mot
version=1
nRows=12
nColumns=31
inDegrees=yes
endheader
time	ground_force_vx	ground_force_vy	ground_force_vz	ground_force_px	ground_force_py	ground_force_pz	1_ground_force_vx	1_ground_force_vy	1_ground_force_vz	1_ground_force_px	1_ground_force_py	1_ground_force_pz	ground_torque_x	ground_torque_y	ground_torque_z	1_ground_torque_x	1_ground_torque_y	1_ground_torque_z	apo_force_vx	apo_force_vy	apo_force_vz	apo_force_px	apo_force_py	apo_force_pz	1_apo_force_vx	1_apo_force_vy	1_apo_force_vz	1_apo_force_px	1_apo_force_py	1_apo_force_pz	
0.01500000000000	125.77800000000001	999.05399999999997	-60.57900000000000	-0.20443200000000	0.00000000000000	0.08552240000000	9.86123000000000	38.82790000000000	-8.89047000000000	0.07133870000000	0.00000000000000	-0.03042790000000	0.00000000000000	2.61117000000000	0.00000000000000	0.00000000000000	-2.27819000000000	0.00000000000000	-0.26828000000000	0.05198100000000	0.00000000000000	0.00000000000000	-0.35000000000000	0.00000000000000	-0.24829000000000	-0.17154000000000	0.00000000000000	0.00000000000000	-0.35000000000000	0.00000000000000	
0.02000000000000	135.41499999999999	1002.54000000000000	-58.88360000000000	-0.21371700000000	0.00000000000000	0.08568280000000	7.37250000000000	58.80440000000000	-9.53234000000000	0.08482300000000	0.00000000000000	-0.03728450000000	0.00000000000000	2.76658000000000	0.00000000000000	0.00000000000000	-2.52768000000000	0.00000000000000	-0.58688000000000	0.11861000000000	0.00000000000000	0.00000000000000	-0.35000000000000	0.00000000000000	0.00320150000000	0.00222190000000	0.00000000000000	0.00000000000000	-0.35000000000000	0.00000000000000	
0.02500000000000	144.75100000000000	1002.22000000000000	-56.91010000000000	-0.22357700000000	0.00000000000000	0.08585730000000	4.14365000000000	81.32140000000000	-9.95749000000000	0.09874120000000	0.00000000000000	-0.04444200000000	0.00000000000000	2.89095000000000	0.00000000000000	0.00000000000000	-2.73850000000000	0.00000000000000	-0.91986000000000	0.19348000000000	0.00000000000000	0.00000000000000	-0.35000000000000	0.00000000000000	0.26831000000000	0.18707000000000	0.00000000000000	0.00000000000000	-0.35000000000000	0.00000000000000	
0.03000000000000	153.60100000000000	997.83900000000006	-54.66760000000000	-0.23389700000000	0.00000000000000	0.08603600000000	0.15935100000000	106.30500000000001	-10.12960000000000	0.11292200000000	0.00000000000000	-0.05181360000000	0.00000000000000	2.97984000000000	0.00000000000000	0.00000000000000	-2.90199000000000	0.00000000000000	-1.26240000000000	0.27566000000000	0.00000000000000	0.00000000000000	-0.35000000000000	0.00000000000000	0.54469000000000	0.38154000000000	0.00000000000000	0.00000000000000	-0.35000000000000	0.00000000000000	
0.03500000000000	161.78299999999999	989.17200000000003	-52.17050000000000	-0.24453600000000	0.00000000000000	0.08620630000000	-4.58031000000000	133.63999999999999	-10.01560000000000	0.12718500000000	0.00000000000000	-0.05930740000000	0.00000000000000	3.02962000000000	0.00000000000000	0.00000000000000	-3.01014000000000	0.00000000000000	-1.60980000000000	0.36400000000000	0.00000000000000	0.00000000000000	-0.35000000000000	0.00000000000000	0.83086000000000	0.58477000000000	0.00000000000000	0.00000000000000	-0.35000000000000	0.00000000000000	
0.04000000000000	169.11900000000000	976.07500000000005	-49.43820000000000	-0.25533400000000	0.00000000000000	0.08635300000000	-10.05910000000000	163.17699999999999	-9.58651000000000	0.14134500000000	0.00000000000000	-0.06682850000000	0.00000000000000	3.03752000000000	0.00000000000000	0.00000000000000	-3.05589000000000	0.00000000000000	-1.95610000000000	0.45678000000000	0.00000000000000	0.00000000000000	-0.35000000000000	0.00000000000000	1.12430000000000	0.79519000000000	0.00000000000000	0.00000000000000	-0.35000000000000	0.00000000000000	
0.04500000000000	175.44300000000001	958.46900000000005	-46.49490000000000	-0.26610800000000	0.00000000000000	0.08645850000000	-16.24460000000000	194.72900000000001	-8.81852000000000	0.15521700000000	0.00000000000000	-0.07428090000000	0.00000000000000	3.00178000000000	0.00000000000000	0.00000000000000	-3.03327000000000	0.00000000000000	-2.29420000000000	0.55171000000000	0.00000000000000	0.00000000000000	-0.35000000000000	0.00000000000000	1.42150000000000	1.01040000000000	0.00000000000000	0.00000000000000	-0.35000000000000	0.00000000000000	
0.05000000000000	179.12600000000000	943.70000000000005	-44.35880000000000	-0.27341300000000	0.00000000000000	0.08649650000000	-20.89410000000000	217.53100000000001	-8.08133000000000	0.16450900000000	0.00000000000000	-0.07932470000000	0.00000000000000	2.95122000000000	0.00000000000000	0.00000000000000	-2.97518000000000	0.00000000000000	-2.57220000000000	0.63518000000000	0.00000000000000	0.00000000000000	-0.35000000000000	0.00000000000000	1.66690000000000	1.19080000000000	0.00000000000000	0.00000000000000	-0.35000000000000	0.00000000000000	
0.05500000000000	179.44200000000001	942.12599999999998	-44.14680000000000	-0.27410900000000	0.00000000000000	0.08649790000000	-21.36420000000000	219.79200000000000	-7.99822000000000	0.16539000000000	0.00000000000000	-0.07980590000000	0.00000000000000	2.94490000000000	0.00000000000000	0.00000000000000	-2.96714000000000	0.00000000000000	-2.75010000000000	0.69522000000000	0.00000000000000	0.00000000000000	-0.35000000000000	0.00000000000000	1.80280000000000	1.29460000000000	0.00000000000000	0.00000000000000	-0.35000000000000	0.00000000000000	
0.06000000000000	179.75800000000001	940.55200000000002	-43.93480000000000	-0.27480500000000	0.00000000000000	0.08649920000000	-21.83440000000000	222.05199999999999	-7.91511000000000	0.16627100000000	0.00000000000000	-0.08028710000000	0.00000000000000	2.93858000000000	0.00000000000000	0.00000000000000	-2.95910000000000	0.00000000000000	-2.92050000000000	0.75348000000000	0.00000000000000	0.00000000000000	-0.35000000000000	0.00000000000000	1.93010000000000	1.39330000000000	0.00000000000000	0.00000000000000	-0.35000000000000	0.00000000000000	
0.06500000000000	180.07499999999999	938.97799999999995	-43.72270000000000	-0.27550100000000	0.00000000000000	0.08650050000000	-22.30450000000000	224.31200000000001	-7.83200000000000	0.16715200000000	0.00000000000000	-0.08076830000000	0.00000000000000	2.93226000000000	0.00000000000000	0.00000000000000	-2.95106000000000	0.00000000000000	-3.08390000000000	0.80937000000000	0.00000000000000	0.00000000000000	-0.35000000000000	0.00000000000000	2.04930000000000	1.48710000000000	0.00000000000000	0.00000000000000	-0.35000000000000	0.00000000000000	
0.07000000000000	180.39099999999999	937.40499999999997	-43.51070000000000	-0.27619700000000	0.00000000000000	0.08650190000000	-22.77460000000000	226.57300000000001	-7.74889000000000	0.16803300000000	0.00000000000000	-0.08124950000000	0.00000000000000	2.92593000000000	0.00000000000000	0.00000000000000	-2.94302000000000	0.00000000000000	-3.24080000000000	0.86233000000000	0.00000000000000	0.00000000000000	-0.35000000000000	0.00000000000000	2.16100000000000	1.57640000000000	0.00000000000000	0.00000000000000	-0.35000000000000	0.00000000000000	
